<svg class="mr-3 h-6 sm:h-9 w-auto" width="176" height="44" viewBox="0 0 176 44" fill="none" xmlns="http://www.w3.org/2000/svg">
							<path d="M24.1477 18.0255C22.8412 24.5916 3.5779 27.313 3.43523 31.0178C3.43298 31.0674 3.37099 31.0902 3.33737 31.0533C2.68226 30.3415 2.11082 29.5543 1.63386 28.7056C1.01162 27.5988 1.39109 26.1756 2.49514 25.553C2.50523 25.547 2.51568 25.5407 2.52652 25.5351C6.10011 23.5635 19.1328 20.8394 21.7682 13.6835C21.7824 13.6444 21.8324 13.6335 21.8608 13.6634C22.6974 14.5427 23.4097 15.5395 23.9681 16.6269C24.1858 17.053 24.2441 17.5435 24.1507 18.0128L24.1477 18.0255Z" fill="#F79611"></path>
							<path d="M18.6056 12.9327C14.2962 20.136 1.23776 18.8512 0.253601 24.2646C0.242396 24.3284 0.150518 24.3239 0.142675 24.2605C0.0836626 23.7554 0 22.9488 0 22.4493C0 21.0015 0.142301 19.5731 0.682 18.3159C3.24828 12.3291 13.8701 14.2421 14.4359 9.89533C14.44 9.86399 14.4684 9.84161 14.499 9.84608C15.7338 10.0229 16.9107 10.3788 18.0028 10.885C18.7737 11.2432 19.0863 12.2023 18.6183 12.9137C18.6138 12.92 18.6097 12.926 18.6056 12.9327Z" fill="#EB7802"></path>
							<path d="M25.4252 22.1759C25.426 22.1456 25.4021 22.1214 25.3718 22.1214C25.3509 22.121 25.3326 22.133 25.324 22.1509C25.3221 22.1527 25.3221 22.155 25.3221 22.1568C23.1506 28.1447 10.7622 29.9969 7.38957 31.989C7.35745 32.0043 6.79608 32.3251 6.78936 32.9761C6.78301 33.6185 7.33018 33.9546 7.39928 33.989C8.87533 34.9167 10.7566 35.1298 12.617 35.148C19.6215 35.2182 25.3565 29.5746 25.4275 22.5426C25.4286 22.4213 25.4282 22.2975 25.4252 22.1759Z" fill="#FDD602"></path>
							<path d="M42.1131 9.9813C34.9801 9.67987 29.1364 15.5357 29.4722 22.667C29.7575 28.7254 34.5733 33.6911 40.6269 34.1574C43.1954 34.3562 45.6078 33.7489 47.6475 32.57V34.1951H53.7108V22.2398C53.7108 15.73 48.6268 10.2588 42.1131 9.9813ZM47.6344 22.4763C47.4451 25.4891 44.9968 27.936 41.9782 28.1259C38.3199 28.3583 35.3031 25.3451 35.534 21.6892C35.7248 18.6761 38.1731 16.2288 41.1902 16.0393C44.85 15.8091 47.8667 18.8223 47.6344 22.4763Z" fill="white"></path>
							<path d="M68.3831 10.0129C62.0404 10.3222 56.863 15.99 56.863 22.3322V43.3049H62.9263V32.5968C64.8263 33.6951 67.0493 34.2964 69.4207 34.2136C75.7271 33.995 80.8847 28.8495 81.1073 22.5479C81.3568 15.458 75.5023 9.66634 68.3831 10.0129ZM75.0204 22.7281C74.7403 25.561 72.4448 27.8542 69.6078 28.1355C65.7739 28.5141 62.5771 25.3211 62.9562 21.4914C63.2371 18.658 65.5333 16.3649 68.37 16.0855C72.2043 15.705 75.401 18.8983 75.0204 22.7281Z" fill="white"></path>
							<path d="M90.2095 34.2214H84.147V9.9976H90.2095V34.2214Z" fill="white"></path>
							<path d="M114.602 34.3706H108.539L99.4438 22.2587L108.539 10.1467H114.602L105.507 22.2587L114.602 34.3706Z" fill="white"></path>
							<path d="M99.3417 34.2087H93.2799V9.98452H99.3417V34.2087Z" fill="white"></path>
							<path d="M123.555 34.2214H117.492V9.9976H123.555V34.2214Z" fill="white"></path>
							<ellipse cx="87.0662" cy="3.9409" rx="3.0309" ry="3.02733" fill="white"></ellipse>
							<ellipse cx="120.679" cy="3.9409" rx="3.0309" ry="3.02733" fill="white"></ellipse>
							<path d="M141.605 36.4309C140.79 36.4309 140.053 36.2511 139.393 35.8915C138.746 35.52 138.231 34.9747 137.847 34.2556C137.476 33.5365 137.29 32.6376 137.29 31.5589C137.29 30.4803 137.482 29.5814 137.865 28.8623C138.261 28.1432 138.782 27.6038 139.429 27.2443C140.088 26.8847 140.814 26.705 141.605 26.705C142.539 26.705 143.366 26.9087 144.086 27.3162C144.805 27.7237 145.374 28.293 145.793 29.0241C146.213 29.7432 146.423 30.5881 146.423 31.5589C146.423 32.5297 146.213 33.3807 145.793 34.1117C145.374 34.8428 144.805 35.4121 144.086 35.8196C143.366 36.2271 142.539 36.4309 141.605 36.4309ZM136.553 36.323V22.9836H138.279V29.3297L138.099 31.5409L138.207 33.7522V36.323H136.553ZM141.461 34.9207C142.072 34.9207 142.617 34.7829 143.097 34.5073C143.588 34.2316 143.972 33.8421 144.247 33.3387C144.535 32.8234 144.679 32.2301 144.679 31.5589C144.679 30.8758 144.535 30.2885 144.247 29.7971C143.972 29.2937 143.588 28.9042 143.097 28.6286C142.617 28.3529 142.072 28.2151 141.461 28.2151C140.862 28.2151 140.316 28.3529 139.825 28.6286C139.345 28.9042 138.962 29.2937 138.674 29.7971C138.399 30.2885 138.261 30.8758 138.261 31.5589C138.261 32.2301 138.399 32.8234 138.674 33.3387C138.962 33.8421 139.345 34.2316 139.825 34.5073C140.316 34.7829 140.862 34.9207 141.461 34.9207ZM148.717 36.323V22.9836H150.443V36.323H148.717ZM157.729 36.4309C156.771 36.4309 155.92 36.2211 155.177 35.8016C154.434 35.3822 153.846 34.8069 153.415 34.0758C152.983 33.3327 152.768 32.4938 152.768 31.5589C152.768 30.6121 152.983 29.7731 153.415 29.0421C153.846 28.311 154.434 27.7417 155.177 27.3342C155.92 26.9147 156.771 26.705 157.729 26.705C158.676 26.705 159.521 26.9147 160.264 27.3342C161.019 27.7417 161.607 28.311 162.026 29.0421C162.458 29.7612 162.673 30.6001 162.673 31.5589C162.673 32.5057 162.458 33.3447 162.026 34.0758C161.607 34.8069 161.019 35.3822 160.264 35.8016C159.521 36.2211 158.676 36.4309 157.729 36.4309ZM157.729 34.9207C158.341 34.9207 158.886 34.7829 159.365 34.5073C159.857 34.2316 160.24 33.8421 160.516 33.3387C160.792 32.8234 160.929 32.2301 160.929 31.5589C160.929 30.8758 160.792 30.2885 160.516 29.7971C160.24 29.2937 159.857 28.9042 159.365 28.6286C158.886 28.3529 158.341 28.2151 157.729 28.2151C157.118 28.2151 156.573 28.3529 156.093 28.6286C155.614 28.9042 155.231 29.2937 154.943 29.7971C154.655 30.2885 154.511 30.8758 154.511 31.5589C154.511 32.2301 154.655 32.8234 154.943 33.3387C155.231 33.8421 155.614 34.2316 156.093 34.5073C156.573 34.7829 157.118 34.9207 157.729 34.9207ZM169.141 39.9185C168.266 39.9185 167.415 39.7927 166.588 39.541C165.773 39.3013 165.108 38.9537 164.593 38.4983L165.42 37.1679C165.863 37.5515 166.408 37.8511 167.056 38.0668C167.703 38.2945 168.38 38.4084 169.087 38.4084C170.214 38.4084 171.041 38.1447 171.568 37.6174C172.095 37.09 172.359 36.287 172.359 35.2084V33.1949L172.539 31.3072L172.449 29.4016V26.7949H174.085V35.0286C174.085 36.7065 173.665 37.941 172.826 38.732C171.987 39.523 170.759 39.9185 169.141 39.9185ZM168.925 35.9275C168.002 35.9275 167.175 35.7357 166.444 35.3522C165.725 34.9567 165.15 34.4114 164.719 33.7162C164.299 33.0211 164.089 32.2181 164.089 31.3072C164.089 30.3844 164.299 29.5814 164.719 28.8982C165.15 28.2031 165.725 27.6638 166.444 27.2802C167.175 26.8967 168.002 26.705 168.925 26.705C169.74 26.705 170.483 26.8728 171.155 27.2083C171.826 27.5319 172.359 28.0353 172.755 28.7185C173.162 29.4016 173.366 30.2645 173.366 31.3072C173.366 32.338 173.162 33.1949 172.755 33.878C172.359 34.5612 171.826 35.0765 171.155 35.4241C170.483 35.7597 169.74 35.9275 168.925 35.9275ZM169.123 34.4174C169.758 34.4174 170.322 34.2855 170.813 34.0219C171.304 33.7582 171.688 33.3926 171.963 32.9252C172.251 32.4578 172.395 31.9185 172.395 31.3072C172.395 30.696 172.251 30.1567 171.963 29.6892C171.688 29.2218 171.304 28.8623 170.813 28.6106C170.322 28.3469 169.758 28.2151 169.123 28.2151C168.488 28.2151 167.919 28.3469 167.415 28.6106C166.924 28.8623 166.534 29.2218 166.247 29.6892C165.971 30.1567 165.833 30.696 165.833 31.3072C165.833 31.9185 165.971 32.4578 166.247 32.9252C166.534 33.3926 166.924 33.7582 167.415 34.0219C167.919 34.2855 168.488 34.4174 169.123 34.4174Z" fill="#BABABA"></path>
						</svg>